<svg width="25" height="25" viewBox="0 0 25 25" fill="none" xmlns="http://www.w3.org/2000/svg">
<g clip-path="url(#clip0_3865_7896)">
<path d="M12.9629 0.5C6.20389 0.5 0.962891 5.453 0.962891 12.14C0.962891 15.638 2.39689 18.662 4.73089 20.75C4.92589 20.924 5.04589 21.17 5.05189 21.434L5.11789 23.57C5.1227 23.7272 5.16603 23.8807 5.24409 24.0172C5.32215 24.1537 5.43254 24.269 5.56556 24.3528C5.69858 24.4366 5.85015 24.4865 6.00697 24.4981C6.16378 24.5096 6.32103 24.4825 6.46489 24.419L8.84689 23.369C9.04789 23.279 9.27589 23.264 9.48889 23.321C10.5839 23.621 11.7479 23.783 12.9629 23.783C19.7219 23.783 24.9629 18.83 24.9629 12.143C24.9629 5.456 19.7219 0.5 12.9629 0.5Z" fill="url(#paint0_radial_3865_7896)"/>
<path d="M5.75678 15.5451L9.28178 9.95309C9.41438 9.74256 9.5892 9.5618 9.79519 9.42223C10.0012 9.28267 10.2339 9.18732 10.4785 9.14222C10.7232 9.09711 10.9746 9.10323 11.2168 9.16018C11.4591 9.21713 11.6868 9.32368 11.8858 9.47309L14.6908 11.5761C14.816 11.6698 14.9684 11.7203 15.1248 11.7197C15.2812 11.7192 15.4332 11.6677 15.5578 11.5731L19.3438 8.69909C19.8478 8.31509 20.5078 8.92109 20.1718 9.45809L16.6438 15.0471C16.5112 15.2576 16.3364 15.4384 16.1304 15.578C15.9244 15.7175 15.6917 15.8129 15.447 15.858C15.2023 15.9031 14.9509 15.897 14.7087 15.84C14.4665 15.7831 14.2387 15.6765 14.0398 15.5271L11.2348 13.4241C11.1096 13.3303 10.9572 13.2799 10.8008 13.2805C10.6443 13.281 10.4924 13.3325 10.3678 13.4271L6.58178 16.3011C6.07778 16.6851 5.41778 16.0821 5.75678 15.5451Z" fill="white"/>
</g>
<defs>
<radialGradient id="paint0_radial_3865_7896" cx="0" cy="0" r="1" gradientUnits="userSpaceOnUse" gradientTransform="translate(4.98289 24.5) scale(26.4 26.4)">
<stop stop-color="#0099FF"/>
<stop offset="0.6" stop-color="#A033FF"/>
<stop offset="0.9" stop-color="#FF5280"/>
<stop offset="1" stop-color="#FF7061"/>
</radialGradient>
<clipPath id="clip0_3865_7896">
<rect width="24" height="24" fill="white" transform="translate(0.962891 0.5)"/>
</clipPath>
</defs>
</svg>
